# xmcd
#
# Track frame offsets:
#	150
#	92911
#	111440
#	131506
#	173486
#	215615
#
# Disc length: 3218 seconds
#
# Revision: 1
# Processed by: cddbd v1.5.2PL0 Copyright (c) Steve Scherf et al.
# Submitted via: audiograbber 1.83.01
#
DISCID=500c9006
DTITLE=Grateful Dead - 90-10-30 Wembley Arena, London, England
DYEAR=1900
DGENRE=
TTITLE0=Drums > Space
TTITLE1=The Wheel
TTITLE2=I Need A Miracle
TTITLE3=Black Peter
TTITLE4=Turn On Your Lovelight
TTITLE5=The Weight
EXTD=
EXTT0=
EXTT1=
EXTT2=
EXTT3=
EXTT4=
EXTT5=
PLAYORDER=
